<?xml version="1.0" encoding="utf-8" ?><svg xmlns="http://www.w3.org/2000/svg" xmlns:xlink="http://www.w3.org/1999/xlink" width="5800" height="1426" viewBox="0 0 5800 1426"><path fill="#FEFEFE" d="M2987.2 679.812C3023.87 607.915 3101.68 550.075 3177.55 525.482C3211.71 514.133 3246.9 506.16 3282.62 501.677C3318.02 496.889 3358.33 496.438 3393.3 496.803C3437.9 497.27 3482.14 492.148 3523.08 511.948C3529.28 514.946 3551.54 532.794 3551.83 532.834C3551.12 527.583 3548.19 523.469 3546.52 518.319C3544.54 512.233 3543.12 506.39 3541.88 500.131C3532.37 453.684 3543.27 405.389 3571.81 367.531C3596.36 335.17 3636.17 310.517 3676.46 304.873C3720.68 298.408 3765.66 309.882 3801.39 336.743C3816.5 348.303 3827.17 360 3837.64 375.712C3853.02 347.854 3869.23 330.467 3900.81 321.082C3915.29 316.781 3926.26 318.208 3940.19 316.887C4171.95 294.925 4130.46 397.563 4135.47 570.936L4136.37 570.341C4143.93 565.264 4154.39 554.791 4161.12 548.759C4189.91 522.954 4210.97 497.475 4253.24 500.265C4262.22 500.858 4269.41 499.682 4279.69 501.712C4306 506.908 4326.35 526.195 4347.12 541.864C4351.82 545.415 4359.48 550.207 4363.24 553.566C4368.51 556.416 4376.75 563.11 4380.64 564.738L4378.27 563.049L4379.71 561.84L4371.33 549.095C4348.94 507.39 4342.37 464.465 4356.1 418.569C4368.73 376.822 4397.59 341.893 4436.21 321.625C4464.61 306.399 4482.92 304.073 4514.42 303.759C4649.57 302.412 4724.58 463.793 4639.99 568.431C4660.37 595.235 4669.04 619.569 4668.31 653.709C4728.82 563.477 4824.14 523.677 4923.35 500.488C4924.15 500.302 4924.63 490.329 4924.43 489.492C4925.3 438.506 4918.15 373.623 4963.4 338.336C4973.83 330.134 4992.87 320.424 5006.22 319.146C5029.25 316.942 5054.24 313.612 5077.17 316.151C5101.84 318.882 5127.05 316.668 5151.59 319.379C5163.25 320.667 5179.35 327.932 5189.06 334.227C5214.26 350.381 5223.92 374.576 5229.07 403.114C5233.32 426.684 5233.66 456.31 5233.67 480.655L5233.44 562.953C5233.37 569.325 5231.07 589.88 5234.67 593.602C5246.56 581.399 5254.08 571.15 5268.03 560.039C5347.18 496.989 5460.64 490.417 5557.6 500.483C5604.63 505.366 5672.08 525.495 5708.12 557.939C5728.81 576.561 5740.07 606.611 5738.9 634.052C5739.17 664.577 5737.51 733.029 5727.38 760.801C5723.27 771.964 5716.76 782.089 5708.31 790.465C5701.49 797.284 5697.51 799.957 5689.22 804.754C5699.27 816.147 5709.41 827.747 5717.54 840.611C5772.84 928.132 5761.77 1049.4 5682.54 1119.03C5623.55 1170.88 5544.84 1183.8 5468.7 1183.71C5457.02 1183.69 5440.17 1184.17 5428.92 1183.32C5370.72 1179.22 5313.75 1164.63 5260.75 1140.25C5253.09 1136.75 5245.58 1133.11 5238.17 1129.11C5233.84 1126.77 5225.03 1118.31 5221.53 1117.07C5181.33 1185.49 5132.65 1171.65 5063.85 1172.8C4957.95 1174.58 4845.48 1170.88 4751.67 1115.6C4731.87 1103.82 4713.67 1089.54 4697.52 1073.12C4694.6 1070.16 4673.89 1046.97 4672.54 1046.41C4671.12 1056.72 4671.13 1068.16 4669.73 1078.77C4663.19 1128.24 4626.75 1164.7 4577.31 1171.8C4566.8 1173.31 4555.57 1172.78 4544.82 1172.79L4491.31 1172.81C4460.44 1172.8 4445 1175.46 4416.62 1160.62C4394.25 1148.93 4390.73 1143.29 4375.54 1123.6C4348.97 1143.86 4289.2 1171.32 4256.5 1178.35C4244.83 1180.86 4219.34 1180.49 4206.99 1179.26C4175.22 1176.45 4155.55 1151.27 4136.51 1128.75C4134.82 1127.16 4126.94 1116.44 4124.84 1118.31C4119.23 1123.31 4116.32 1131.48 4111.48 1137.24C4076.61 1178.74 4023.99 1172.85 3975.43 1172.9C3939.22 1172.93 3895.64 1175.92 3865.7 1150.73C3857.59 1143.82 3850.78 1135.59 3843.88 1127.52C3843.64 1127.23 3841.62 1128.49 3841.81 1128.32C3837.06 1132.58 3833.85 1138.47 3829.34 1142.9C3824.62 1147.55 3819.5 1151.65 3813.98 1155.23C3801.76 1163.16 3788.09 1168.58 3773.75 1171.18C3763.36 1173.14 3752.62 1172.94 3742.07 1172.84C3710.92 1172.57 3679.6 1173.27 3648.46 1172.75C3622.64 1172.31 3595.22 1159.16 3577.77 1140.54C3576.66 1139.38 3575.63 1138.16 3574.66 1136.89C3561.36 1207.39 3531.35 1268.56 3470.26 1309.82C3414.82 1347.27 3345.6 1365.09 3278.5 1362.15C3213.65 1359.3 3098.54 1374.75 3056.07 1312.65C3027.44 1270.79 3035.65 1194.96 3041.63 1146.62C3043.37 1130.8 3054.21 1111.73 3063.37 1099.37C3030.71 1073.67 3003.8 1041.41 2984.37 1004.67L2983.83 1005.44C2979.82 1011.22 2977.92 1017.19 2974.49 1023.12C2967.71 1034.86 2960.26 1046.83 2952.28 1057.79C2907.26 1118.6 2841.18 1160.44 2766.96 1175.14C2738.42 1180.68 2730.13 1179.82 2701.74 1180.04C2635.63 1180.54 2575.29 1166.81 2520.06 1128.94C2492.7 1110.19 2473.19 1091.01 2452.39 1064.88C2445.61 1100.39 2438.96 1132.32 2406.48 1154.83C2395.73 1162.28 2373.65 1171.62 2360.92 1172.33C2343.47 1173.29 2323.12 1172.85 2305.49 1172.84L2193.64 1172.77L2032.08 1172.78C2005.6 1172.83 1975.31 1174.8 1949.32 1171.09C1894.19 1163.23 1864.55 1122.44 1860.78 1068.89C1852.89 956.631 1857.08 843.846 1854.88 731.593L1849.81 529.221C1849.03 496.228 1845.58 431.224 1852.01 401.575C1858.2 373.055 1872.77 349.15 1897.68 333.125C1906.08 327.721 1922.24 321.139 1932.19 319.546C1949.26 316.81 2067.58 317.139 2081.59 320.363C2106.74 326.147 2128.71 341.249 2142.2 363.401C2151.72 379.051 2157.33 398.335 2159.53 416.478C2165.11 462.505 2161.48 513.346 2162.92 559.999L2168.1 751.767C2169.54 793.878 2172.61 838.303 2172.48 880.142C2232.67 882.645 2292.53 881.083 2352.75 881.745C2363.27 881.86 2372.86 886.001 2382.85 886.632C2383 876.486 2381.99 868.69 2381.62 858.711C2381.07 842.835 2381.18 826.943 2381.94 811.075C2391.95 623.782 2524.81 490.156 2714.06 496.807C2792.88 499.578 2866.98 529.256 2922.6 586.109C2951.64 615.956 2968.15 643.544 2987.2 679.812ZM4923.24 863.59L4925.55 863.259C4927.9 858.947 4928.33 827.893 4926.61 822.67C4926.34 821.832 4925.85 821.273 4925.24 820.675C4920.14 835.021 4915.57 847.631 4922.65 862.392C4922.84 862.794 4923.04 863.191 4923.24 863.59ZM2712.25 1109.08C2739.82 1109.12 2772.2 1100.76 2797.72 1090.51C2970.41 1021.11 2992.27 757.23 2868.56 634.209C2825.6 591.487 2763.32 568.004 2703 568.136C2698.68 568.169 2694.36 568.271 2690.04 568.443C2528.74 577.11 2446.59 702.678 2453.44 855.719C2456.8 930.924 2481.86 1000.84 2538.75 1052.2C2587.05 1095.87 2648.03 1109.76 2712.25 1109.08ZM4291 835.042C4303.97 852.611 4318.55 869.96 4330.47 888.191C4339.66 901.397 4349.64 914.262 4359.82 926.724C4360.44 906.591 4362.18 778.457 4357.67 768.814C4348.58 776.009 4340.43 785.205 4332.21 793.402C4318.29 807.094 4304.55 820.975 4291 835.042ZM3272.57 807.749C3262.89 814.775 3258.98 824.582 3257.16 836.164C3255.83 844.604 3255.52 856.978 3260.81 864.275C3261.8 865.644 3263.07 866.835 3264.3 867.982C3266.96 869.696 3268.99 871.069 3272.19 871.593C3275.63 867.678 3273.96 822.476 3273.57 814.461C3273.46 812.196 3273.13 809.947 3272.57 807.749ZM5244.31 891.642C5247 888.011 5251.49 885.427 5255.17 882.844C5248.44 875.83 5241.32 866.483 5233.69 860.706C5231.26 868.008 5231.53 894.411 5233.79 901.621L5234.78 902.084C5238.47 899.122 5241.33 895.284 5244.31 891.642Z"/><path fill="#040453" d="M3367.43 567.482C3401.44 566.299 3464.82 563.517 3493.96 577.797C3506.34 603.112 3503.07 699.097 3502.88 730.597C3502.58 767.534 3502.8 804.472 3503.53 841.403L3506.43 1009.61C3506.97 1056.79 3509.96 1108.86 3496.85 1154.42C3453.58 1304.67 3275.47 1302.33 3149.62 1285.34C3114.21 1282.1 3107.51 1266.57 3108.43 1231.98C3108.8 1217.99 3106.93 1159.78 3119.09 1147.05C3122.91 1143.05 3149.03 1147.83 3156.19 1149.22C3161.8 1149.65 3167.12 1150.69 3172.71 1151.53C3217.99 1158.28 3269.11 1169.3 3312.36 1148.43C3330.8 1139.53 3341.34 1122.11 3347.49 1103.2C3328.17 1101.71 3306.63 1101.94 3286.78 1100.66C3217.82 1096.88 3148.09 1079.21 3095.48 1032.12C2998.22 945.062 2996.48 762.755 3083.57 668.178C3156.82 588.639 3264.56 571.825 3367.43 567.482ZM3264.3 867.982C3266.96 869.696 3268.99 871.069 3272.19 871.593C3275.63 867.678 3273.96 822.476 3273.57 814.461C3273.46 812.196 3273.13 809.947 3272.57 807.749C3262.89 814.775 3258.98 824.582 3257.16 836.164C3255.83 844.604 3255.52 856.978 3260.81 864.275C3261.8 865.644 3263.07 866.835 3264.3 867.982Z"/><path fill="#FEFEFE" d="M3326.92 715.579C3332.27 715.048 3337.65 714.797 3343.01 714.463C3346.59 750.709 3345.54 788.77 3345.66 825.246C3345.81 869.026 3346.56 912.936 3345.74 956.702C3311.92 958.539 3258.71 948.362 3228.8 932.299C3205.93 914.167 3190.94 896.359 3185.97 866.508C3180.69 834.799 3187.41 798.792 3206.52 772.58C3235.05 733.451 3281.8 722.658 3326.92 715.579ZM3264.3 867.982C3266.96 869.696 3268.99 871.069 3272.19 871.593C3275.63 867.678 3273.96 822.476 3273.57 814.461C3273.46 812.196 3273.13 809.947 3272.57 807.749C3262.89 814.775 3258.98 824.582 3257.16 836.164C3255.83 844.604 3255.52 856.978 3260.81 864.275C3261.8 865.644 3263.07 866.835 3264.3 867.982Z"/><path fill="#6DE807" d="M5034.71 387.432C5059.01 386.259 5083.26 387.07 5107.56 387.515C5124.93 387.834 5137.71 386.994 5152.85 396.527C5157.09 408.577 5159.63 421.162 5160.39 433.916C5162.47 474.934 5161.27 517.122 5161 558.263L5160.81 719.368L5160.8 947.121C5160.81 980.537 5162.35 1014.31 5161.32 1047.66C5160.93 1060.06 5160.87 1074 5156.24 1085.67C5153.88 1091.61 5150.31 1095.07 5144.38 1097.48C5113.58 1110.04 4972.59 1101.6 4934.22 1096.91C4904.99 1093.35 4866.54 1088.15 4839.37 1076.94C4804.07 1065.51 4772 1045.8 4745.86 1019.45C4658.47 930.246 4665.06 741.746 4759.03 657.383C4824.4 598.697 4910.87 566.919 4998.78 567.954C4999.53 535.322 4988.17 417.78 5006.32 396.768C5013.43 388.543 5024.65 387.909 5034.71 387.432ZM4923.24 863.59L4925.55 863.259C4927.9 858.947 4928.33 827.893 4926.61 822.67C4926.34 821.832 4925.85 821.273 4925.24 820.675C4920.14 835.021 4915.57 847.631 4922.65 862.392C4922.84 862.794 4923.04 863.191 4923.24 863.59Z"/><path fill="#FEFEFE" d="M4988.83 716.262C4991.25 715.942 4992.8 715.79 4995.12 716.614C5002.59 728.018 4998.3 931.056 4997.52 957.666C4960.12 957.315 4920.77 947.341 4888.21 929.05C4866.73 913.004 4853.59 891.676 4848.75 865.231C4843.32 835.565 4850.89 799.564 4868.17 774.719C4896.04 734.651 4943.83 724.172 4988.83 716.262ZM4923.24 863.59L4925.55 863.259C4927.9 858.947 4928.33 827.893 4926.61 822.67C4926.34 821.832 4925.85 821.273 4925.24 820.675C4920.14 835.021 4915.57 847.631 4922.65 862.392C4922.84 862.794 4923.04 863.191 4923.24 863.59Z"/><path fill="#040453" d="M2690.04 568.443C2694.36 568.271 2698.68 568.169 2703 568.136C2763.32 568.004 2825.6 591.487 2868.56 634.209C2992.27 757.23 2970.41 1021.11 2797.72 1090.51C2772.2 1100.76 2739.82 1109.12 2712.25 1109.08C2648.03 1109.76 2587.05 1095.87 2538.75 1052.2C2481.86 1000.84 2456.8 930.924 2453.44 855.719C2446.59 702.678 2528.74 577.11 2690.04 568.443ZM2704.76 887.292C2710.54 884.664 2713.49 879.522 2715.67 873.808C2723.24 853.92 2723.22 819.389 2714.18 800.038C2712.48 796.417 2710.18 792.931 2706.3 791.415C2702.83 790.056 2698.79 789.618 2695.1 789.104C2687.7 793.464 2684.94 801.349 2682.93 809.378C2678.05 828.829 2677.32 862.799 2687.98 880.452C2689.96 883.744 2692.98 887.905 2697.02 888.608C2699.38 889.019 2702.47 887.91 2704.76 887.292Z"/><path fill="#FEFEFE" d="M2680.7 718.256C2701.6 717.267 2722.42 717.354 2741.41 727.487C2763.85 739.457 2778.63 761.378 2785.96 785.31C2797.93 824.434 2796.51 876.78 2777.03 913.254C2763.35 938.869 2743.42 951.412 2716.25 959.545C2695.66 962.835 2677.06 961.786 2658.49 951.278C2635.94 938.523 2621.55 915.358 2614.69 890.886C2603.27 850.159 2603.88 797.543 2625.24 760.018C2638.26 737.15 2655.73 724.981 2680.7 718.256ZM2704.76 887.292C2710.54 884.664 2713.49 879.522 2715.67 873.808C2723.24 853.92 2723.22 819.389 2714.18 800.038C2712.48 796.417 2710.18 792.931 2706.3 791.415C2702.83 790.056 2698.79 789.618 2695.1 789.104C2687.7 793.464 2684.94 801.349 2682.93 809.378C2678.05 828.829 2677.32 862.799 2687.98 880.452C2689.96 883.744 2692.98 887.905 2697.02 888.608C2699.38 889.019 2702.47 887.91 2704.76 887.292Z"/><path fill="#6DE807" d="M3973.71 386.458C3999.48 385.858 4028.96 385.931 4053.49 393.628C4068.86 418.754 4063.07 514.806 4063 547.499C4063.42 614.191 4063.35 680.884 4062.77 747.574C4089.04 721.116 4232.68 569.82 4252.61 568.88C4258.24 568.614 4264.08 571.209 4268.88 573.918C4283.71 582.287 4297.11 594.768 4310.78 604.955C4322.74 613.872 4335.77 621.22 4346.71 631.484C4352.12 636.555 4359.56 644.571 4359.31 652.589C4359.07 660.079 4351.46 669.5 4346.96 675.036C4329.48 696.527 4308.26 715.443 4288.6 734.931L4193.45 829.703C4208.77 844.334 4222.89 864.56 4235.44 881.551L4278.37 939.25C4299.62 967.715 4321.85 995.756 4342.3 1024.8C4346.58 1030.87 4348.06 1034.56 4349.66 1041.75C4350.49 1052.03 4343.19 1059.94 4334.86 1064.84C4306.32 1081.57 4248.65 1115.49 4215.9 1109.08C4196.68 1090.85 4167.62 1052.1 4151.49 1030.18C4121.95 990.049 4089.12 945.768 4062.89 903.514C4061.83 934.171 4069.44 1073.51 4056.31 1089.95C4050.49 1097.23 4040.89 1099.53 4032.09 1100.59C4011.44 1103.08 3925.31 1106.69 3910.29 1093.69C3902.14 1086.64 3901.13 1068.55 3900.19 1058.32C3897.03 1023.93 3899.36 989.2 3899.61 954.73L3899.98 786.645L3899.64 563.345C3899.48 516.288 3898.8 469.8 3900.85 422.733C3902.73 379.783 3940.59 387.504 3973.71 386.458Z"/><path fill="#040453" d="M1957.76 388.497C1991.19 387.018 2027.14 386.536 2060.43 389.387C2080.45 391.101 2086.05 408.491 2087.61 425.636C2090.6 458.341 2090.07 491.204 2090.46 524.036L2093.15 647.485C2095.44 748.4 2102.12 851.363 2100.78 951.952C2141.01 951.794 2345.18 941.802 2367.89 960.243C2377.18 967.787 2379.48 983.565 2380.45 994.654C2382.47 1017.96 2384.84 1073.05 2368.92 1091.59C2363.51 1097.89 2355.62 1100.77 2347.5 1101.4C2323.81 1103.22 2296.12 1102.35 2272.08 1102.3L2153.98 1102.21L2055.01 1102.34C2022.58 1102.61 1971.52 1106.5 1942.89 1093.77C1938.03 1087.29 1934.84 1079.64 1933.97 1071.62C1930.74 1041.52 1930.49 1009.27 1929.31 979.084C1926.23 900.083 1928.34 820.736 1926.95 741.771C1925.65 668.16 1922.16 594.26 1921.7 520.613C1921.45 489.026 1919.56 457.586 1921.41 426.003C1922.98 399.352 1932.93 392.084 1957.76 388.497Z"/><path fill="#6DE807" d="M5471.49 568.505C5517.67 566.924 5560.77 571.596 5605.17 584.839C5621.14 589.601 5637.85 595.255 5651.56 604.96C5659.49 610.571 5664.86 616.866 5666.38 626.642C5668.83 642.36 5665.52 728.931 5657.83 739.279C5642.77 748.785 5573.97 715.002 5554.03 709.949C5538.87 706.109 5522.38 705.937 5506.83 705.385C5487.43 704.697 5458.42 705.099 5443.67 719.291C5439.85 722.963 5437.5 727.61 5437.57 732.973C5438.05 770.532 5547.71 801.393 5577.9 815.519C5598.49 825.157 5618.99 837.66 5635.42 853.518C5663.73 880.855 5679.02 918.743 5679.6 957.916C5680.16 995.361 5667.82 1031.25 5641.47 1058.33C5597.89 1103.11 5529.57 1111.32 5470.25 1112.05C5392.72 1112.62 5339.6 1097.39 5270.14 1064.8C5274.42 1040.55 5279.09 965.22 5294.23 943.773C5309.53 931.704 5350.45 954.083 5363.07 957.606C5397.39 967.191 5502.33 1003.65 5500.47 940.031C5482.1 908.872 5416.4 896.781 5384.27 881.99C5355.02 869.533 5329.48 853.094 5306.22 831.796C5247.31 777.856 5246.34 683.275 5302.16 626.504C5342.32 585.659 5415.8 568.943 5471.49 568.505Z"/><path fill="#040453" d="M3690.55 605.503C3711.98 604.774 3758.29 602.273 3774.8 616.887C3786.45 627.196 3786.96 654.288 3788 668.889C3790.17 699.277 3789.07 730.231 3788.94 760.686L3788.75 896.242C3788.8 952.011 3794.71 1008.67 3788.18 1064.23C3787.04 1073.9 3784.29 1084.79 3777.49 1092.15C3766.22 1104.34 3732.94 1102.31 3716.75 1103.19C3696 1104.17 3648.5 1106.66 3632.83 1093.2C3621.65 1083.6 3621.93 1062.59 3621.1 1049C3617.54 991.152 3621.22 932.687 3620.97 874.75L3620.05 734.333C3620.07 703.633 3619.93 672.457 3622.42 641.838C3622.99 634.853 3623.61 624.138 3628.5 618.808C3641.55 604.588 3672.47 606.417 3690.55 605.503Z"/><path fill="#6DE807" d="M4513.42 605.49C4531.67 605.323 4570.93 604.538 4585.04 616.704C4595.49 625.711 4595.84 644.928 4596.87 657.628C4599.66 692.07 4598.91 726.567 4598.91 761.097L4598.92 904.499C4598.99 957.338 4604.75 1010.79 4599.04 1063.51C4598.07 1072.44 4595.86 1082.18 4589.78 1089.13C4575.83 1105.05 4538.8 1101.99 4519.24 1103.3C4500.19 1103.83 4459.13 1106.26 4443.96 1093.6C4435.38 1086.45 4433.17 1075.53 4432.28 1064.96C4430.46 1043.38 4431.95 1020.97 4432.02 999.283L4432.05 878.325C4431.95 820.562 4430.28 762.761 4431.16 705.005C4431.48 683.889 4431.27 662.493 4433.01 641.452C4433.62 633.999 4434.32 624.661 4439.56 618.881C4453.21 603.844 4494.12 605.851 4513.42 605.49Z"/><path fill="#040453" d="M3696.91 375.43C3747.21 372.614 3790.3 411.052 3793.22 461.348C3796.14 511.645 3757.79 554.813 3707.5 557.839C3657.06 560.874 3613.74 522.389 3610.81 471.943C3607.88 421.498 3646.45 378.255 3696.91 375.43Z"/><path fill="#6DE807" d="M4502.76 375.446C4552.77 370.113 4597.66 406.276 4603.1 456.278C4608.53 506.281 4572.46 551.245 4522.47 556.784C4472.33 562.339 4427.21 526.14 4421.76 475.992C4416.31 425.844 4452.6 380.795 4502.76 375.446Z"/><path fill="#FEFEFE" d="M1394.48 19.4437C1400.32 19.3205 1406.16 19.2604 1412 19.2632C1458.55 19.5548 1531.85 48.9057 1571.47 73.4978C1591.31 85.7929 1609.65 100.365 1626.11 116.919C1704.83 197.273 1701.8 293.865 1690.51 397.53C1685.56 441.697 1680.01 485.792 1673.84 529.805C1672.07 543.667 1670.15 557.509 1668.08 571.331C1666.79 579.701 1664.22 593.25 1664.13 601.295C1665.31 602.785 1667.26 604.404 1669.09 604.843C1760.06 626.904 1808.5 710.616 1745.87 790.37C1732.38 810.521 1685.62 839.959 1684 864.575C1680.73 914.11 1686.91 968.333 1688.59 1018.03C1690.56 1076.19 1698.39 1133.55 1698.65 1191.64C1698.91 1248.26 1689.3 1289.18 1647.12 1329.54C1565.26 1413 1440.26 1419.97 1353.16 1340.92C1335.3 1324.72 1329.35 1304.42 1329.29 1280.95C1297.43 1286.9 1275.96 1285.99 1243.96 1285.96L1172.27 1285.94C1065.81 1285.94 959.265 1285.94 852.804 1285.91C845.427 1285.91 835.739 1282.1 833.76 1282.35C822.065 1283.83 812.964 1286.09 800.619 1286.08C748.544 1286.04 696.27 1285.63 644.209 1285.97C610.018 1286.18 574.643 1291.95 539.925 1289.62C524.323 1288.57 505.557 1286.88 490.076 1284.56C480.214 1283.09 463.936 1277.51 454.883 1276.86C453.209 1278.81 450.966 1289.83 449.248 1294.03C442.789 1309.82 438.063 1316.5 426.7 1328.19C397.338 1358.13 348.634 1364.58 309.861 1355.48C249.956 1341.42 199.773 1311.8 167.859 1258.08C145.653 1220.71 121.953 1178.01 114.646 1135.08C107.667 1094.08 116.268 1054.86 124.319 1015.26C128.647 993.713 133.085 972.192 137.633 950.694C141.494 932.733 146.529 911.814 147.738 893.861C149.036 874.58 138.9 834.039 128.972 817.935C103.604 805.953 78.1666 791.587 62.9081 767.306C35.8915 724.313 48.4017 676.812 84.3063 643.853C94.2914 633.431 111.036 624.469 119.392 612.993C150.858 569.777 141.513 505.787 132.838 457.741C118.133 376.301 94.3595 296.275 110.735 213.275C122.235 154.988 156.85 104.425 206.843 72.3802C289.462 20.8606 412.898 -0.606394 486.122 79.011C493.454 86.9839 499.006 95.8964 504.822 104.891C530.607 106.064 566.764 105.017 593.225 105.019L769.363 104.997L932.048 105.12C943.307 105.206 949.341 109.042 958.523 109.399C962.747 109.563 975.526 104.941 981.831 104.952C1015.72 105.012 1049.75 105.043 1083.62 105.041L1296.52 105.013C1296.57 52.5569 1334.34 31.8749 1379.71 21.984C1384.74 20.8863 1389.4 20.6259 1394.48 19.4437Z"/><path fill="#0C3FD7" d="M834.684 175.504C862.767 174.417 901.815 175.971 930.484 176.445C965.897 232.095 986.787 340.438 985.981 406.189C989.791 403.053 993.536 399.309 997.392 396.073C1031.67 367.318 1073.1 361.482 1111.91 385.505C1131.97 397.93 1146.18 417.892 1151.37 440.905C1157.19 465.762 1152.75 491.915 1139.07 513.466C1107.4 562.834 1034.82 571.071 993.633 526.173C991.178 523.497 980.089 506.926 979.44 506.501C979.575 506.306 969.303 547.787 967.526 553.215C954.69 591.675 939.289 629.23 921.427 665.628C916.965 664.451 911.948 662.713 907.538 661.179C869.362 647.894 831.867 632.296 793.41 619.814C801.652 561.707 804.828 523.264 763.328 475.565C761.73 473.914 760.117 472.276 758.49 470.653C732.278 444.567 697.219 431.713 660.499 431.944C623.635 431.908 588.33 446.807 562.638 473.242C524.711 511.941 525.099 554.797 525.484 604.876C499.697 607.202 461.592 618.624 438.551 630.241C422.673 638.246 408.086 646.941 391.428 654.351C387.924 638.047 388.775 616.409 388.89 599.438L389.164 544.952C390.091 471.407 390.274 397.855 389.714 324.307C389.366 281.362 393.954 249.497 425.479 217.15C468.168 173.35 513.63 175.602 570.142 175.551L648.915 175.79L834.684 175.504Z"/><path fill="#6DE807" d="M1214.25 175.51C1236.88 174.908 1259.51 174.914 1282.14 175.528C1323.26 176.778 1358.34 186.415 1387.56 217.613C1405.56 236.967 1417.69 261.036 1422.54 287.017C1427.24 312.243 1425.71 345.431 1425.51 371.71L1424.7 480.906C1424.03 579.253 1426.57 671.845 1423.35 770.79C1412.23 774.414 1400.69 775.593 1389.62 778.613C1334.43 793.667 1281.45 792.052 1224.97 791.503C1248.23 826.229 1257.31 865.793 1236.36 904.499C1225.58 924.259 1207.39 938.924 1185.79 945.268C1102.42 969.908 1032.86 887.295 1074.68 810.438C1085.01 793.198 1099.91 779.835 1117.29 770.049C1072.66 753.751 1029.69 733.198 988.993 708.673C945.871 682.431 961.83 690.435 979.152 645.808C986.024 628.103 991.978 607.383 1001.71 591.205C1003.72 587.863 1038.07 598.782 1043.84 599.613C1052.65 600.824 1061.56 601.201 1070.45 600.739C1104.67 598.908 1139.95 582.624 1162.79 556.855C1187.9 528.645 1200.87 491.67 1198.89 453.956C1195.84 401.591 1158.86 350.125 1108.39 334.088C1078.66 324.639 1054.25 326.226 1023.98 327.95C1019.35 298.205 1011.25 268.399 1003.43 239.359C1000.36 227.945 981.869 185.741 985.507 177.881C994 175.128 1025.47 176.09 1036.1 175.969L1214.25 175.51Z"/><path fill="#FFAD26" d="M656.731 475.322C657.447 475.282 658.164 475.253 658.881 475.233C682.235 474.595 708.387 484.496 725.299 500.636C744.048 518.253 754.788 542.764 755.029 568.491C755.372 602.335 738.149 622.327 716.038 645.122C772.781 656.986 840.884 682.667 894.29 705.488C890.267 717.708 875.78 745.089 869.459 757.783C857.6 781.689 846.309 805.872 835.595 830.312C820.004 823.941 793.855 817.764 777.025 816.456C741.448 813.487 706.172 824.946 679.131 848.255C601.473 915.699 627.131 1052.34 728.232 1080.15C748.277 1085.66 769.359 1086.21 790.003 1087.63C795.929 1122.74 797.988 1169.53 809.007 1203.69C810.203 1206.85 811.748 1209.81 811.379 1213.04C800.718 1217.09 711.397 1214.08 693.001 1214.36C648.766 1215.02 601.381 1218.12 557.312 1218.18C544.309 1218.29 531.309 1217.66 518.376 1216.3C478.613 1212.43 442.076 1192.73 416.983 1161.64C382.952 1119.41 388.641 1075.1 388.842 1024.3L388.923 925.247L388.698 800.179C388.608 768.345 387.634 736.543 391.043 704.926C428.676 676.562 507.941 649.161 555.061 641.303C569.286 638.931 585.005 638.238 599.427 638.445C563.567 603.776 558.849 550.207 588.531 509.263C604.581 487.122 630.506 478.787 656.731 475.322Z"/><path fill="#EB1C68" d="M934.151 729.644C943.116 730.09 1023.54 777.737 1034.98 784.758C1029.5 806.432 1020.03 827.469 1018.18 849.933C1015.45 883.16 1027.98 918.971 1049.31 944.253C1073.13 972.488 1106.27 990.651 1143.29 993.7C1180.06 996.736 1216.51 984.867 1244.45 960.759C1284.95 925.892 1288.35 884.471 1291.84 834.971C1337.48 834.06 1380.88 823.574 1425.46 814.954C1424.79 876.529 1425.42 938.239 1425.48 999.829C1425.52 1033.76 1428.71 1069.98 1422.32 1103.42C1418.44 1123.78 1409.87 1143.75 1397.21 1160.18C1363.63 1203.73 1331.93 1208.39 1281.24 1214.93C1266.88 1216.54 1251.12 1215.55 1236.63 1215.56L1147.62 1215.37L859.402 1215.53C854.219 1204.23 851.044 1191.36 847.874 1179.38C835.544 1132.76 823.058 1064.92 834.697 1017.6C828.497 1022.69 822.229 1027.78 815.384 1031.98C793.745 1045.27 768.682 1047.67 744.214 1041.71C720.516 1035.94 699.828 1021.75 687.304 1000.68C674.139 978.53 671.297 949.306 677.93 924.593C684.137 901.975 699.043 882.732 719.393 871.068C741.805 858.48 770.996 855.036 795.702 862.105C822.361 869.733 839.019 889.235 851.983 912.707C858.866 896.757 864.01 879.671 869.836 863.272C886.64 815.973 904.449 770.578 934.151 729.644Z"/><path fill="#040453" d="M1398.69 91.321C1431.5 88.6109 1483.6 108.474 1512.54 123.45C1635.05 186.865 1631.23 277.524 1617.82 396.708C1611.9 447.879 1605.37 498.976 1598.22 549.99C1594.72 574.438 1585.94 612.418 1593.15 635.922C1606.52 679.428 1685.28 668.237 1700.31 707.961C1709.73 737.743 1665.81 767.5 1647.85 786.043C1611.41 823.677 1608.85 859.261 1611.21 908.85C1610.95 931.858 1613.91 955.002 1614.28 977.9C1615.4 1048 1625.25 1117.48 1626.46 1187.42C1626.8 1207.13 1627.1 1232.39 1617.65 1249.79C1600.06 1282.19 1565.56 1307.7 1530.74 1318.87C1482.22 1332.68 1437.32 1320.35 1400.47 1286.38C1426.23 1258.08 1472.14 1252.63 1492.66 1218.61C1516.82 1178.55 1505.52 1123.81 1503.63 1079.53C1501.53 1042.54 1499.74 1005.42 1496.47 968.523C1492.42 922.803 1483.02 877.536 1491.5 831.738C1499.4 789.141 1520.51 754.567 1541.65 717.543C1521.57 694.493 1506.36 677.269 1491.28 650.313C1459.33 593.175 1465.34 542.311 1477.55 480.664C1483.4 451.116 1489.96 415.797 1494.23 386.076C1497.49 363.355 1496.86 324.413 1496.83 301.749C1496.8 280.438 1496.58 238.549 1490.41 219.073C1478.81 182.474 1413.23 161.869 1386.26 138.432C1379.61 132.657 1373.73 121.778 1371.2 113.547C1370.65 111.776 1368.2 103.042 1369.01 102.205C1374.15 96.8544 1391.7 93.1662 1398.69 91.321Z"/><path fill="#040453" d="M359.085 97.3901C375.233 97.0579 392.319 102.345 406.588 108.901C417.77 114.039 439.012 128.979 441.977 141.13C449.33 171.267 386.598 177.648 366.262 186.364C328.365 202.604 296.731 235.75 293.736 278.368C291.007 317.201 306.358 366.837 313.345 405.628C326.68 479.656 348.959 586.119 324.763 658.311C319.804 673.106 306.71 687.418 298.401 700.953C281.086 729.158 303.906 752.388 315.686 777.748C321.412 790.074 324.577 800.448 328.686 813.389C344.54 863.32 344.703 922.662 334.857 973.646C323.357 1033.2 306.031 1084.08 319.21 1145.5C323.641 1166.15 327.712 1191.17 340.299 1209.39C355.962 1232.06 375.164 1236.47 383.222 1265.92C365.361 1298.43 333.756 1288.62 305.698 1278.26C253.93 1265.26 236.478 1232.93 212.909 1190.93C178.48 1129.59 180.189 1104.07 193.639 1037.13C199.074 1008.93 204.922 980.801 211.183 952.768C217.183 926.218 223.599 894.616 218.934 867.095C214.337 839.979 199.304 778.138 175.797 761.735C162.586 752.186 144.606 747.081 131.888 737.059C97.2582 709.77 154.276 684.307 169.248 666.415C257.572 560.861 188.154 417.497 178.305 298.085C174.21 248.432 180.747 198.99 214.266 160.396C247.434 121.325 309.233 100.776 359.085 97.3901Z"/></svg>