<?xml version="1.0" encoding="utf-8" ?><svg xmlns="http://www.w3.org/2000/svg" xmlns:xlink="http://www.w3.org/1999/xlink" width="931" height="220" viewBox="0 0 931 220"><path fill="#0C3FD8" transform="scale(1.00047 1.00113)" d="M91.7416 29.0076C85.6672 28.9651 79.5916 28.9227 73.5213 29.0738C66.9559 29.4225 61.8138 31.6669 57.3681 36.5689C54.9728 39.2105 53.4711 42.4802 52.8524 45.9834C52.3683 48.7219 52.4171 51.5867 52.465 54.3973C52.4767 55.0863 52.4884 55.7721 52.4921 56.4519C52.5144 60.1564 52.5074 63.861 52.4724 67.5651L52.3604 91.8083C52.359 93.0169 52.3422 94.2321 52.3254 95.4498C52.2857 98.3207 52.2458 101.205 52.4081 104.048C52.4399 104.674 52.5131 105.296 52.6277 105.912C54.9257 105.233 56.8723 103.798 58.9818 102.704C63.7738 100.25 68.9566 98.6493 74.2985 97.9758C74.0357 90.1265 74.2992 83.2753 79.9327 77.1873C83.9283 72.8644 89.502 70.3405 95.3863 70.1903C101.198 70.0031 107.005 71.9306 111.281 75.9434C115.601 79.9983 118.103 85.3269 118.254 91.2704C118.333 94.3615 117.846 97.38 117.346 100.418C122.755 102.164 128.103 104.275 133.432 106.259C134.937 106.776 136.439 107.314 137.954 107.803C141.312 100.672 146.671 88.9024 147.215 81.1587C148.285 84.4968 150.323 86.7929 153.453 88.4034C157.073 90.2653 161.593 90.5912 165.451 89.3015C169.101 88.0819 172.176 85.2492 173.84 81.7896C175.601 78.0956 175.819 73.8517 174.444 69.9967C173.089 66.3086 170.439 63.4068 166.854 61.782C163.217 60.1337 159.168 59.8444 155.433 61.3098C152.59 62.4254 150.35 64.0507 148.276 66.2653C148.463 64.7185 148.339 63.1155 148.217 61.5477C148.193 61.227 148.168 60.9077 148.146 60.5906C147.474 50.8973 144.485 37.5344 139.47 29.1661C129.896 28.8772 120.304 28.9382 110.72 28.999C107.774 29.0178 104.83 29.0365 101.886 29.045C98.5058 29.0548 95.1239 29.0312 91.7416 29.0076Z"/><path fill="#6DE907" transform="scale(1.00047 1.00113)" d="M168.77 29.0199C163.962 28.9923 159.154 28.9647 154.346 29.0731L147.941 29.2016C148.675 32.9546 150.351 36.5469 151.454 40.2049C152.798 44.6617 153.539 48.9656 154.467 53.4988C161.69 52.8511 168.678 53.1513 174.511 58.0473C179.104 61.9022 182.093 67.3735 182.546 73.366C183.026 79.7099 180.925 85.6292 176.752 90.3792C173.073 94.5677 167.3 97.091 161.773 97.4125C158.049 97.6289 154.453 96.5907 150.978 95.3698C149.538 97.9326 148.715 101.009 147.595 103.738C146.5 106.404 145.136 108.963 144.085 111.643C151.982 116.997 160.521 121.335 169.502 124.555C165.862 126.471 162.437 130.113 161.217 134.096C160.074 137.827 160.594 142.332 162.429 145.759C163.865 148.442 166.141 150.446 168.794 151.872C172.666 153.631 177.327 153.953 181.345 152.446C184.767 151.197 187.548 148.632 189.069 145.321C190.822 141.437 190.876 136.673 189.372 132.701C188.718 130.974 187.746 129.422 186.645 127.946C193.225 128.171 199.784 128.279 206.318 127.295C210.475 126.669 214.548 125.562 218.677 124.782C219.096 114.868 219.007 104.905 218.918 94.9512C218.87 89.5869 218.822 84.2249 218.854 78.8741L218.977 59.6905C218.981 58.8021 218.998 57.9007 219.015 56.9924C219.079 53.615 219.145 50.1414 218.56 46.8844C217.816 42.8482 215.957 39.101 213.194 36.0672C208.907 31.3892 203.349 29.2351 197.08 29.0082C192.53 28.8436 187.945 28.9089 183.372 28.9742C181.279 29.004 179.188 29.0338 177.104 29.0416C174.326 29.0518 171.548 29.0359 168.77 29.0199Z"/><path fill="#FFAD26" transform="scale(1.00047 1.00113)" d="M96.0108 77.2255C95.3303 77.2388 94.6498 77.2929 93.9712 77.349C89.7681 78.2318 86.2753 79.6889 83.8475 83.4382C81.4827 87.0908 80.7997 91.6606 81.7494 95.8879C82.3573 98.6996 83.843 101.245 85.9921 103.156L86.183 103.331C86.2212 103.366 86.2607 103.4 86.2989 103.434C77.1516 102.691 60.1925 108.76 52.5844 114.105C52.1617 118.678 52.2134 123.252 52.2651 127.833C52.2751 128.716 52.285 129.598 52.2916 130.481L52.3317 149.22L52.3082 165.699C52.3049 166.513 52.2933 167.338 52.2816 168.168C52.2304 171.815 52.1775 175.577 52.8168 179.11C53.3986 182.322 54.9161 185.202 56.9983 187.692C61.1168 192.717 67.1208 195.826 73.6003 196.288C79.0203 196.729 84.9929 196.47 90.7719 196.219C93.2033 196.114 95.6004 196.01 97.9077 195.96C101.353 195.886 104.795 195.919 108.237 195.953C112.334 195.994 116.432 196.034 120.539 195.892L119.899 194.343C118.234 188.207 117.487 181.821 116.796 175.516C109.052 175.303 103.156 174.698 97.5029 168.717C93.4849 164.467 91.4868 158.769 91.6911 152.951C91.8961 147.101 94.1215 141.594 98.4462 137.589C102.699 133.651 108.21 131.69 113.999 131.926C117.502 132.068 120.847 133.19 124.179 134.189C126.028 129.958 127.978 125.773 130.027 121.636C131.205 119.237 132.733 116.718 133.589 114.193C126.776 111.347 120.16 108.743 113.085 106.613C110.406 105.806 107.576 104.9 104.786 104.616C108.464 100.879 111.221 97.655 111.194 92.1405C111.142 88.0965 109.482 84.2396 106.583 81.4203C103.747 78.6863 99.9492 77.179 96.0108 77.2255Z"/><path fill="#EC1C68" transform="scale(1.00047 1.00113)" d="M156.261 126.882C150.782 124.088 145.656 120.628 140.167 117.872C133.618 126.499 130.422 137.577 126.845 147.66C124.973 143.945 122.283 140.824 118.238 139.488C114.381 138.215 109.693 138.667 106.08 140.494C102.695 142.188 100.139 145.179 98.9918 148.787C97.76 152.728 98.1006 157.461 100.026 161.129C101.815 164.538 104.853 166.829 108.512 167.934C112.516 169.143 116.652 169.025 120.369 166.994C121.673 166.281 122.796 165.427 123.826 164.359L124.038 164.142C122.12 173.256 124.726 187.551 127.956 196.148C132.261 196.013 136.579 196.037 140.893 196.06C142.486 196.069 144.08 196.078 145.672 196.078L178.268 196.066C180.062 196.064 181.857 196.074 183.654 196.083C187.581 196.103 191.512 196.124 195.433 196.034C203.467 195.29 208.354 194.631 213.931 187.934C216.122 185.328 217.645 182.226 218.369 178.899C219.165 175.178 219.084 171.038 219.007 167.083C218.983 165.883 218.96 164.701 218.962 163.552L219.006 145.525C219.001 144.128 218.984 142.733 218.967 141.337C218.927 138.147 218.888 134.958 218.989 131.767C211.878 133.256 204.815 134.967 197.504 134.995C197.427 142.41 196.432 148.94 190.85 154.373C186.598 158.482 180.891 160.739 174.98 160.648C169.123 160.484 163.571 157.999 159.547 153.74C155.513 149.586 153.317 143.984 153.455 138.194C153.575 134.024 155.249 130.798 156.261 126.882Z"/><path fill="#040453" transform="scale(1.00047 1.00113)" d="M233.532 20.8907C228.809 18.5178 220.402 15.0961 215.153 15.4578C213.275 15.7818 211.514 16.3512 209.766 17.1049C210.711 20.699 211.414 22.6565 214.779 24.6083C218.562 26.8025 228.248 31.4349 229.453 35.7456C230.46 39.3481 230.468 43.6398 230.475 47.4924C230.476 47.9633 230.476 48.4276 230.479 48.8832C230.483 49.4753 230.488 50.069 230.493 50.6639C230.532 55.2313 230.572 59.8678 229.898 64.3779C229.295 68.4065 228.574 72.0415 227.906 75.4093C224.9 90.5583 222.968 100.299 237.754 116.12C234.344 121.913 230.997 127.5 229.714 134.201C228.625 139.888 229.294 145.813 229.95 151.629C230.172 153.595 230.392 155.549 230.543 157.476C231.033 163.734 231.319 169.962 231.695 176.223C231.758 177.268 231.848 178.348 231.939 179.448C232.432 185.377 232.975 191.911 229.659 196.94C226.072 202.38 219.218 202.937 214.967 207.568C219.092 211.273 225.115 214.066 230.696 213.764C232.37 213.674 233.942 213.366 235.542 212.876C241.062 211.364 246.976 207.011 249.791 201.986C250.043 201.538 250.269 201.075 250.467 200.601C252.191 196.436 251.083 183.49 250.37 175.154C250.196 173.112 250.044 171.346 249.965 170.054C249.759 166.737 249.709 163.409 249.532 160.089C249.29 155.531 248.95 151.001 248.926 146.434C248.923 145.871 248.914 145.3 248.905 144.723C248.859 141.799 248.811 138.739 249.532 135.963C250.438 132.475 252.529 129.468 254.984 126.887C255.604 126.236 256.416 125.517 257.293 124.741C260.441 121.956 264.418 118.438 263.29 114.668C262.729 112.794 260.834 111.549 259.171 110.727C254.778 108.555 247.858 108.394 245.976 102.931C245.086 100.348 245.742 96.1678 246.265 92.8436C246.393 92.0268 246.513 91.2618 246.6 90.5848C247.779 81.4242 249.208 72.303 250.145 63.1117L250.199 62.5898C251.402 50.8067 252.625 38.83 244.28 29.1213C241.367 25.733 237.522 22.8958 233.532 20.8907Z"/><path fill="#040453" transform="scale(1.00047 1.00113)" d="M46.5085 16.4905L46.2857 16.5097C37.8246 17.6462 28.6449 20.6178 23.3042 27.7015C17.5943 35.2751 17.7146 44.5653 19.0138 53.5008C19.5254 57.0197 20.2851 60.7146 21.0629 64.4971C23.9982 78.7713 27.19 94.2936 18.2646 106.317C17.5504 107.279 16.7961 108.212 15.8966 109.007C15.501 109.357 14.9475 109.779 14.3258 110.253C12.052 111.987 8.86545 114.417 9.14789 116.551C9.33249 117.942 10.4426 118.903 11.5311 119.654C13.6432 121.111 16.2194 121.858 18.2939 123.334C21.4257 125.562 23.9853 134.875 24.739 138.696C25.2266 141.169 25.3291 143.793 25.1203 146.302C24.8593 149.437 23.9847 152.582 23.3297 155.657L20.6612 168.694C20.6109 168.942 20.5605 169.188 20.5103 169.433C19.674 173.515 18.9136 177.227 19.6943 181.473C20.3932 185.272 22.4309 189.253 24.2228 192.654C26.2559 196.512 28.8766 200.836 32.5062 203.348C34.8176 204.947 37.5764 205.834 40.2181 206.725C43.1634 207.769 45.5919 208.501 48.5684 207.107C49.8307 206.517 50.8511 205.667 51.3654 204.345C51.3438 202.518 49.4106 200.259 48.1419 199.025C46.9573 197.873 45.5422 196.794 44.6129 195.416C41.854 191.327 40.4142 182.781 40.3136 177.886C40.2099 172.855 41.277 168.139 42.3612 163.346C42.6689 161.986 42.978 160.62 43.2621 159.238C44.4607 153.411 44.9852 147.164 44.5027 141.222C44.1864 137.336 43.3818 133.504 42.108 129.819C41.6007 128.33 41.0157 126.869 40.3569 125.441C40.047 124.776 39.6148 124.01 39.1542 123.193C37.9485 121.054 36.5479 118.57 36.6349 116.668C36.7794 113.5 40.3588 110.418 41.6382 107.525C43.6758 102.919 43.8286 98.1121 43.6784 93.1705C43.4263 84.8425 42.2652 76.496 40.6344 68.3315C40.4095 67.2058 40.1063 65.8032 39.7693 64.2443C38.514 58.4372 36.7897 50.4605 36.8991 46.5456C37.0137 42.4594 38.8667 38.3245 41.7006 35.413C43.8776 33.1756 46.6123 31.53 49.5048 30.3934C50.2576 30.0976 51.3337 29.8271 52.5271 29.5271C56.2034 28.6029 60.9942 27.3987 60.887 24.3101C60.8367 22.8595 59.8169 21.5947 58.7717 20.6724C55.5317 17.8129 50.8243 16.1584 46.5085 16.4905Z"/><path fill="#040453" transform="scale(1.00047 1.00113)" d="M551.756 93.748C548.256 91.015 530.558 92.018 525.575 92.306C510.899 93.297 495.125 97.264 485.113 108.862C476.847 118.436 474.944 129.816 475.919 142.054C476.684 151.649 480.987 161.122 488.406 167.378C499.694 176.894 514.175 177.9 528.235 178.083C526.963 181.489 525.483 184.109 522.042 185.646C515.803 188.432 507.848 187.155 500.461 185.968C497.405 185.478 494.446 185.002 491.746 184.837C490.771 185.573 490.576 185.976 490.377 187.228C489.855 190.512 489.007 202.589 490.687 205.003C491.734 206.507 493.645 207 495.362 207.228C510.26 209.204 530.196 210.513 542.759 200.732C549.022 195.856 552.562 187.991 553.424 180.204C553.946 175.492 553.876 170.624 553.807 165.832C553.79 164.634 553.773 163.441 553.765 162.257C553.695 151.495 553.42 140.771 553.169 130.015C553.073 125.891 553.12 121.738 553.168 117.583C553.237 111.525 553.306 105.46 552.931 99.468C552.818 97.668 552.615 95.352 551.756 93.748ZM527.924 154.572C521.198 154.438 515.781 153.744 509.612 150.94C509.407 150.805 509.202 150.669 508.998 150.532C505.387 148.092 503.009 144.826 502.222 140.483C501.293 135.352 502.251 129.546 505.275 125.247C509.875 118.708 517.03 117.137 524.423 115.83L527.481 115.566C527.914 125.331 527.912 135.179 527.911 144.992C527.91 148.19 527.909 151.385 527.924 154.572Z"/><path fill="#6DE907" transform="scale(1.00047 1.00113)" d="M809.832 63.0704C805.735 62.9714 801.488 62.8689 797.493 63.186C796.256 63.668 794.965 64.056 794.383 65.369C792.911 68.6878 793.408 81.9967 793.672 89.0893C793.718 90.3014 793.756 91.3319 793.777 92.1C781.313 91.533 765.193 97.278 756.135 105.561C747.827 113.159 743.746 122.879 743.329 134.061C742.921 144.985 745.126 156.19 752.813 164.391C757.41 169.295 762.921 172.118 769.171 174.311C774.141 175.673 779.031 176.588 784.15 177.203C789.1 177.798 814.284 179.181 817.735 177.01C818.889 176.283 819.344 174.665 819.55 173.401C820.012 170.576 819.933 167.45 819.856 164.433C819.828 163.306 819.799 162.193 819.8 161.118L819.801 137.208L819.807 94.537C819.809 92.1566 819.837 89.7646 819.865 87.3686C819.927 82.0596 819.99 76.7313 819.772 71.467C819.675 69.128 819.357 66.878 818.568 64.669C817.114 63.16 814.299 63.167 812.323 63.127C811.501 63.1107 810.67 63.0906 809.832 63.0704ZM793.561 154.786C787.065 154.197 781.634 153.554 775.912 150.09C772.473 147.648 770.331 144.071 769.598 139.927C768.735 135.049 769.969 129.145 772.866 125.11C777.459 118.711 785.217 117.083 792.505 115.832L793.259 115.761C794.175 117.137 793.699 150.424 793.561 154.786Z"/><path fill="#040453" transform="scale(1.00047 1.00113)" d="M448.069 100.006C440.754 94.205 430.041 91.324 420.777 92.303C410.609 93.137 401.174 97.145 394.461 105.039C385.813 115.209 383.467 128.557 384.576 141.507C385.518 152.499 390.352 163.528 398.95 170.667C407.64 177.882 417.255 179.249 428.139 178.989C438.384 177.884 447.599 173.378 454.163 165.3C462.229 155.374 464.73 141.592 463.315 129.099C462.042 117.857 457.042 107.121 448.069 100.006ZM435.924 148.495C433.753 152.065 430.608 154.039 426.609 155.008C423.125 155.716 419.716 155.259 416.691 153.334C412.911 150.928 410.725 146.519 409.839 142.247C408.483 135.704 408.884 127.484 412.711 121.781C414.809 118.656 417.515 116.898 421.21 116.206C424.775 115.993 428.134 116.187 431.282 118.047C434.92 120.196 437.105 123.963 438.118 127.976C439.714 134.294 439.383 142.804 435.924 148.495Z"/><path fill="#6DE907" transform="scale(1.00047 1.00113)" d="M641.748 64.155C638.076 62.299 625.877 62.978 621.469 63.25C620.134 63.553 619.045 63.8 618.232 64.986C617.083 66.664 617.16 69.233 617.077 71.199C616.883 75.8027 616.92 80.4417 616.957 85.0673C616.971 86.8572 616.985 88.645 616.986 90.428L617.043 126.814L616.987 154.126C616.984 155.59 616.938 157.18 616.891 158.835C616.732 164.359 616.553 170.604 617.862 175.271C618.137 176.252 618.494 176.657 619.404 177.112C621.949 178.383 637.583 178.353 640.468 177.238C641.439 176.863 642.307 176.136 642.678 175.141C643.695 172.417 643.418 158.878 643.254 150.829C643.211 148.73 643.176 147.004 643.173 145.941C645.214 149.77 665.74 178.431 668.113 179.131C672.055 180.294 683.282 174.316 686.707 172.079C687.663 171.454 689.07 170.54 689.298 169.347C689.671 167.402 688.286 165.552 687.126 164.002C686.953 163.77 686.784 163.545 686.627 163.327C681.808 157.041 677.045 150.712 672.339 144.341C669.831 140.996 667.227 137.003 664.202 134.132L680.914 117.515C683.642 114.782 686.668 112.097 689.087 109.101C689.93 108.056 690.7 106.96 691.008 105.637C690.37 102.25 684.733 99.348 682.118 97.368C680.534 96.169 679.047 94.815 677.401 93.701C676.359 92.996 674.618 91.927 673.338 92.27C670.745 92.965 646.278 117.186 643.184 121.055C643.388 113.861 643.335 106.635 643.281 99.4179C643.256 95.9926 643.231 92.5692 643.233 89.152C643.234 87.139 643.282 85.0876 643.329 83.0223C643.44 78.2411 643.552 73.3846 643.097 68.754C642.947 67.235 642.683 65.388 641.748 64.155Z"/><path fill="#040453" transform="scale(1.00047 1.00113)" d="M317.956 63.136C313.528 63.029 308.98 63.061 304.556 63.251C302.744 63.493 301.001 63.781 299.869 65.401C299.046 66.578 298.871 67.759 298.802 69.155C298.618 72.8646 298.694 76.6237 298.769 80.3629C298.796 81.722 298.824 83.0785 298.838 84.429C298.979 97.273 299.513 110.094 299.695 122.93C299.76 127.487 299.769 132.052 299.778 136.619C299.796 145.72 299.813 154.829 300.273 163.897C300.439 167.178 300.317 171.036 301.061 174.219C301.276 175.136 301.686 175.832 302.256 176.569C303.943 177.535 306.211 177.82 308.129 177.941C310.9 178.117 313.718 178.079 316.52 178.041C317.692 178.026 318.862 178.01 320.024 178.01L342.371 178.01L358.02 178.004C358.8 178.004 359.587 178.015 360.376 178.026C362.973 178.062 365.601 178.098 368.145 177.748C369.64 177.329 370.704 176.76 371.448 175.336C373.171 172.037 373.161 160.63 371.98 157.226C371.582 156.081 370.895 155.039 369.749 154.537C365.934 152.867 334.059 153.61 327.626 153.817C327.917 146.769 327.596 139.661 327.277 132.564C327.091 128.44 326.905 124.319 326.84 120.217L325.996 85.492C325.944 83.6779 325.939 81.8522 325.934 80.0238C325.923 76.4428 325.912 72.851 325.557 69.314C325.397 67.728 325.051 65.917 323.984 64.666C322.732 63.199 319.744 63.18 317.956 63.136Z"/><path fill="#6DE907" transform="scale(1.00047 1.00113)" d="M885.379 93.283C879.015 91.96 872.536 92.003 866.078 92.328C856.509 93.602 846.745 95.631 840.558 103.795C836.57 109.058 835.349 115.354 836.308 121.838C837.275 128.378 841.456 133.62 846.685 137.422C849.638 139.538 852.814 141.324 856.156 142.747C860.132 144.469 873.748 147.832 874.503 152.258C874.7 153.418 874.185 154.887 873.473 155.796C872.496 157.043 871.015 157.475 869.496 157.605C863.916 158.083 857.062 156.455 851.839 154.552C849.378 153.656 846.735 152.345 844.153 151.907C842.985 151.709 842.334 151.774 841.325 152.344C839.153 155.524 838.523 163.569 838.024 167.43C837.834 168.9 837.893 170.467 837.314 171.843C848.358 177.571 859.804 180.135 872.258 179.429C881.156 179.179 890.97 177.342 897.376 170.649C901.512 166.327 903.485 160.355 903.282 154.422C903.063 148.039 900.596 142.121 895.892 137.751C892.907 134.977 889.293 132.942 885.604 131.262C880.688 129.022 864.598 124.729 864.276 118.676C864.232 117.847 864.55 117.1 865.138 116.519C867.83 113.859 873.447 114.039 876.914 114.202C879.003 114.3 881.326 114.385 883.35 114.913C884.426 115.193 886.175 115.895 888.154 116.688C892.553 118.452 898.086 120.67 899.877 119.726C900.68 117.069 902.01 102.17 900.763 100.045C898.631 96.409 889.361 94.111 885.379 93.283Z"/><path fill="#040453" transform="scale(1.00047 1.00113)" d="M579.937 98.3028C579.061 98.3587 578.266 98.4095 577.587 98.441C575.966 98.778 574.069 99.083 573.121 100.609C572.327 101.889 572.332 104.295 572.263 105.766C571.874 113.973 571.977 122.296 572.079 130.586C572.129 134.614 572.179 138.635 572.172 142.631C572.17 143.978 572.135 145.955 572.095 148.279C571.946 156.864 571.715 170.188 572.708 174.048C573.018 175.255 573.62 176.479 574.765 177.087C578.031 178.82 590.195 178.042 594.206 177.727C595.565 177.523 596.645 177.239 597.534 176.116C598.725 174.613 599.003 172.727 599.159 170.875C599.618 165.431 599.462 159.77 599.307 154.163C599.228 151.299 599.15 148.448 599.154 145.648L599.19 121.891C599.191 120.906 599.198 119.911 599.205 118.909C599.24 113.896 599.277 108.71 598.522 103.835C598.304 102.43 598.084 100.735 596.855 99.851C593.5 97.4369 585.238 97.9644 579.937 98.3028Z"/><path fill="#6DE907" transform="scale(1.00047 1.00113)" d="M709.843 98.3322C709.369 98.3575 708.94 98.3804 708.567 98.398C706.741 98.686 704.646 98.98 703.52 100.642C702.809 101.69 702.796 103.781 702.734 105.009C702.29 113.759 702.422 122.921 702.552 131.968C702.616 136.443 702.68 140.89 702.674 145.246L702.656 163.644C702.656 164.453 702.63 165.319 702.604 166.213C702.526 168.877 702.44 171.781 703.003 174.114C703.284 175.277 704.127 176.493 705.195 177.056C708.309 178.696 716.646 178.164 721.723 177.84C722.57 177.786 723.326 177.737 723.952 177.706C725.605 177.575 726.859 177.066 728.009 175.806C729.01 174.708 729.32 173.037 729.449 171.603C729.953 165.988 729.773 160.218 729.594 154.484C729.504 151.586 729.413 148.697 729.412 145.843L729.407 122.12C729.406 121.105 729.411 120.084 729.415 119.061C729.435 114.572 729.456 110.025 729.032 105.588C728.861 103.79 728.713 101.133 727.246 99.914C724.407 97.555 714.727 98.0716 709.843 98.3322Z"/><path fill="#040453" transform="scale(1.00047 1.00113)" d="M599.551 72.728C597.883 64.91 590.274 59.86 582.424 61.361C577.195 62.361 572.915 66.113 571.238 71.167C569.561 76.222 570.749 81.789 574.344 85.718C577.938 89.647 583.377 91.323 588.558 90.099C596.336 88.263 601.22 80.545 599.551 72.728Z"/><path fill="#6DE907" transform="scale(1.00047 1.00113)" d="M729.894 72.814C728.284 64.828 720.476 59.685 712.505 61.36C704.624 63.015 699.552 70.719 701.145 78.616C702.737 86.513 710.399 91.647 718.306 90.116C726.302 88.568 731.505 80.8 729.894 72.814Z"/></svg>